<svg width="391" height="143" viewBox="0 0 391 143" fill="none" xmlns="http://www.w3.org/2000/svg">
<g clip-path="url(#clip0_1_4325)">
<path d="M18.0591 35.9469C29.7657 63.9907 31.4053 95.2768 22.6942 124.391C19.3371 135.608 25.7322 142.597 37.1513 140.063C150.644 114.92 243.555 110.05 359.064 123.193C370.676 124.519 376.315 116.889 371.804 106.094C360.097 78.0508 358.458 46.7646 367.169 17.6509C370.526 6.43341 364.131 -0.555294 352.712 1.97795C239.219 27.1219 146.298 31.9916 30.7987 18.8487C19.1874 17.5224 13.5478 25.1418 18.0591 35.9469Z" fill="#D97DFF"/>
<path d="M50.7673 76.1109C51.1474 70.3711 55.1044 67.9167 60.0616 67.6569C65.0867 67.3935 69.1855 70.2429 70.4351 75.8973L55.8351 76.6624L56.1056 81.8233L70.7056 81.0582C70.1253 86.8765 66.3504 90.2067 61.2574 90.4736C56.2323 90.7369 51.9583 88.4415 50.8875 82.3011L43.8931 82.6677C44.8382 91.6064 52.2816 97.2086 61.5848 96.721C71.2276 96.2157 78.1128 88.5688 77.5683 78.1791C77.0238 67.7893 69.377 60.9041 59.7342 61.4095C50.7026 61.8828 44.075 67.95 43.6371 76.4846L50.7673 76.1109ZM108.707 93.5705L116.676 63.7365L118.214 93.0723L125.004 92.7164L123.225 58.763L111.952 59.3538L104.998 87.7727L95.1114 60.2364L83.6351 60.8378L85.4145 94.7912L91.6619 94.4638L90.1245 65.1281L101.101 93.9691L108.707 93.5705ZM164.479 75.9395C164.507 75.189 164.536 74.4384 164.493 73.6235C163.949 63.2338 156.506 56.3379 146.863 56.8432C137.22 57.3486 130.539 64.9847 131.083 75.3745C131.628 85.7642 139.071 92.6601 148.714 92.1548C156.523 91.7455 162.228 87.5652 163.966 80.4605L156.633 80.8448C155.435 83.9718 152.814 85.9477 148.672 86.1647C142.968 86.4637 138.984 83.1997 137.859 77.3346L164.479 75.9395ZM147.176 62.819C152.609 62.5343 156.522 65.7339 157.635 71.3954L137.671 72.4417C138.187 66.6948 141.676 63.1073 147.176 62.819ZM189.712 38.2552C189.912 42.058 187.889 43.7302 185.172 43.8725C182.66 44.0042 180.337 42.5598 180.138 38.757L174.705 39.0417C175.04 45.4249 179.381 49.0106 185.425 48.6939C191.537 48.3736 195.48 44.3537 195.145 37.9705L189.712 38.2552ZM203.043 88.6266L201.264 54.6732L192.639 55.1251L178.509 83.0349L177.089 55.9401L170.57 56.2818L172.349 90.2352L180.973 89.7832L195.104 61.8734L196.524 88.9682L203.043 88.6266ZM219.849 67.8626L220.116 72.9556L225.48 72.6744C229.351 72.4716 231.82 74.1126 231.988 77.3042C232.141 80.2242 230.149 82.5075 224.853 82.7851C219.284 83.077 216.358 80.5066 216.116 75.8889L209.325 76.2448C209.749 84.3257 215.559 88.6516 225.066 88.1533C234.369 87.6658 239.123 83.5353 238.789 77.152C238.59 73.3493 236.417 70.8756 232.547 69.7846C235.799 68.1842 237.344 65.1752 237.17 61.8478C236.892 56.5511 232.247 52.3685 223.215 52.8418C213.64 53.3436 208.975 59.1717 209.324 65.8266L216.114 65.4707C215.887 61.1247 218.543 58.5341 223.5 58.2743C228.186 58.0288 230.53 59.8806 230.679 62.7327C230.836 65.7206 228.948 67.3857 225.213 67.5814L219.849 67.8626ZM277.112 84.7447L275.333 50.7913L266.709 51.2433L252.578 79.1531L251.158 52.0583L244.639 52.3999L246.419 86.3533L255.043 85.9014L269.173 57.9916L270.593 85.0864L277.112 84.7447ZM293.328 83.8949L292.591 69.8382L308.889 68.9841L309.625 83.0408L316.416 82.6849L314.637 48.7315L307.846 49.0874L308.565 62.8046L292.267 63.6587L291.548 49.9415L284.758 50.2974L286.537 84.2508L293.328 83.8949ZM332.65 81.8341L331.198 54.1282L346.749 53.3132L346.421 47.0658L324.08 48.2366L325.86 82.19L332.65 81.8341Z" fill="white"/>
</g>
<defs>
<clipPath id="clip0_1_4325">
<rect width="385" height="123" fill="white" transform="translate(0 20.1494) rotate(-3)"/>
</clipPath>
</defs>
</svg>
