<svg width="69" height="43" viewBox="0 0 69 43" fill="none" xmlns="http://www.w3.org/2000/svg">
<rect y="10.9062" width="23" height="23" rx="5.75" fill="#AD61FF"/>
<path fill-rule="evenodd" clip-rule="evenodd" d="M19.2136 18.6569L11.3073 28.0006C11.0369 28.3203 10.6405 28.5061 10.2219 28.5095C9.80319 28.513 9.40381 28.3338 9.12811 28.0187L4.09686 22.2687L6.26052 20.3755L10.1917 24.8682L17.0188 16.7998L19.2136 18.6569Z" fill="white"/>
<path d="M31.448 37.32H34.392V33H46.744V37.32H49.688V30.056H47.448V9H34.84C34.936 23.976 34.456 27.528 33.144 30.056H31.448V37.32ZM37.08 27.048C37.56 24.456 37.752 20.872 37.784 11.944H44.248V30.056H36.184C36.632 29.16 36.856 28.232 37.08 27.048ZM57.551 33.32C59.855 33.32 61.903 32.424 62.959 30.312V33H66.095V21.8C66.095 18.088 62.895 16.68 59.439 16.68C55.919 16.68 52.591 18.248 52.591 22.376H55.919C55.919 20.296 57.359 19.24 59.439 19.24C61.391 19.24 62.895 20.104 62.895 21.672C62.895 25.32 52.111 21.864 52.111 28.776C52.111 31.944 54.703 33.32 57.551 33.32ZM55.375 28.584C55.375 25.896 60.239 26.568 62.959 25.256V26.408C62.959 29.192 60.655 30.632 58.191 30.632C56.559 30.632 55.375 29.96 55.375 28.584Z" fill="#AD61FF"/>
</svg>
