<svg width="21" height="15" viewBox="0 0 21 15" fill="none" xmlns="http://www.w3.org/2000/svg">
<path d="M3.06779 14.2606C1.57119 15.1152 0.496094 14.403 0.496094 13.1362C0.496094 11.7877 0.496094 7.74134 0.496094 7.74134C0.496094 7.74134 0.496094 3.69501 0.496094 2.34646C0.496094 1.07967 1.57052 0.367474 3.06779 1.22211C5.39872 2.55286 12.3908 6.54644 12.3908 6.54644C13.3206 7.07729 13.3206 8.40474 12.3908 8.93559C12.3908 8.93625 5.39872 12.9298 3.06779 14.2606Z" fill="#00C1FF"/>
<path d="M10.7633 14.2596C9.26675 15.1142 8.19165 14.402 8.19165 13.1353C8.19165 11.7867 8.19165 7.74037 8.19165 7.74037C8.19165 7.74037 8.19165 3.69404 8.19165 2.34548C8.19165 1.07869 9.26608 0.366497 10.7633 1.22113C13.0429 2.52287 19.8817 6.42874 19.8817 6.42874C20.9027 7.01169 20.9027 8.46905 19.8817 9.052C19.881 9.052 13.0429 12.9579 10.7633 14.2596Z" fill="#6FE4FF"/>
<mask id="mask0_1_4314" style="mask-type:alpha" maskUnits="userSpaceOnUse" x="8" y="0" width="13" height="15">
<path d="M10.7631 14.2596C9.2665 15.1142 8.19141 14.402 8.19141 13.1353C8.19141 11.7867 8.19141 7.74037 8.19141 7.74037C8.19141 7.74037 8.19141 3.69404 8.19141 2.34548C8.19141 1.07869 9.26584 0.366497 10.7631 1.22113C13.0427 2.52287 19.8814 6.42874 19.8814 6.42874C20.9025 7.01169 20.9025 8.46905 19.8814 9.052C19.8807 9.052 13.0427 12.9579 10.7631 14.2596Z" fill="#6FE4FF"/>
</mask>
<g mask="url(#mask0_1_4314)">
<g filter="url(#filter0_f_1_4314)">
<path d="M3.06779 14.2606C1.57119 15.1152 0.496094 14.403 0.496094 13.1362C0.496094 11.7877 0.496094 7.74134 0.496094 7.74134C0.496094 7.74134 0.496094 3.69501 0.496094 2.34646C0.496094 1.07967 1.57052 0.367474 3.06779 1.22211C5.39872 2.55286 12.3908 6.54644 12.3908 6.54644C13.3206 7.07729 13.3206 8.40474 12.3908 8.93559C12.3908 8.93625 5.39872 12.9298 3.06779 14.2606Z" fill="#009EE4"/>
</g>
</g>
<defs>
<filter id="filter0_f_1_4314" x="-0.319167" y="0.0333716" width="14.2226" height="15.4157" filterUnits="userSpaceOnUse" color-interpolation-filters="sRGB">
<feFlood flood-opacity="0" result="BackgroundImageFix"/>
<feBlend mode="normal" in="SourceGraphic" in2="BackgroundImageFix" result="shape"/>
<feGaussianBlur stdDeviation="0.407631" result="effect1_foregroundBlur_1_4314"/>
</filter>
</defs>
</svg>
